<svg xmlns="http://www.w3.org/2000/svg" width="92.019" height="97.817" viewBox="0 0 92.019 97.817"><g transform="translate(-162 -1529)"><rect width="81" height="81" rx="40.5" transform="translate(162 1529)" fill="#c9fdcb"/><g transform="translate(-145 -44)"><path d="M1649.385,2108.771a19.385,19.385,0,1,1,19.385-19.385A19.407,19.407,0,0,1,1649.385,2108.771Zm0-36.586a17.2,17.2,0,1,0,17.2,17.2A17.221,17.221,0,0,0,1649.385,2072.184Z" transform="translate(-1287.453 -459.112)" fill="#01ad08"/><path d="M1657.1,2108.771c-5.665,0-10.1-8.515-10.1-19.385s4.437-19.385,10.1-19.385,10.1,8.515,10.1,19.385S1662.767,2108.771,1657.1,2108.771Zm0-36.586c-4.292,0-7.918,7.877-7.918,17.2s3.626,17.2,7.918,17.2,7.918-7.877,7.918-17.2S1661.394,2072.184,1657.1,2072.184Z" transform="translate(-1295.17 -459.112)" fill="#01ad08"/><rect width="34" height="2" transform="translate(345 1623)" fill="#01ad08"/><rect width="34" height="2" transform="translate(345 1637)" fill="#01ad08"/><path d="M-153.989,5.272a5.434,5.434,0,0,1,1.2-3.415,33.963,33.963,0,0,0-13.37-7.771l-.572-.175-.008-.6a8.108,8.108,0,0,0-.086-1.059L-167-9l1.217.354A36.656,36.656,0,0,1-150.56.2a5.435,5.435,0,0,1,2.033-.392,5.466,5.466,0,0,1,5.46,5.46,5.466,5.466,0,0,1-5.46,5.46A5.467,5.467,0,0,1-153.989,5.272Zm2.184,0a3.279,3.279,0,0,0,3.277,3.276,3.279,3.279,0,0,0,3.276-3.276A3.279,3.279,0,0,0-148.528,2,3.279,3.279,0,0,0-151.8,5.272Z" transform="translate(537.945 1603.793)" fill="#01ad08" stroke="rgba(0,0,0,0)" stroke-miterlimit="10" stroke-width="1"/><path d="M-163.728,25.605a36.356,36.356,0,0,1-2.907-14.312A36.625,36.625,0,0,1-165.077.72l.025-.082A5.451,5.451,0,0,1-167-3.54,5.467,5.467,0,0,1-161.539-9a5.467,5.467,0,0,1,5.46,5.46,5.467,5.467,0,0,1-5.46,5.461,5.467,5.467,0,0,1-1.014-.094,33.883,33.883,0,0,0-1.351,9.466,33.638,33.638,0,0,0,2.624,13.084l.286.685-.652.353a8.031,8.031,0,0,0-.853.538l-.829.587ZM-164.816-3.54a3.28,3.28,0,0,0,3.277,3.277,3.279,3.279,0,0,0,3.276-3.277,3.279,3.279,0,0,0-3.276-3.276A3.28,3.28,0,0,0-164.816-3.54Z" transform="translate(491.981 1618.98)" fill="#01ad08" stroke="rgba(0,0,0,0)" stroke-miterlimit="10" stroke-width="1"/><path d="M-167,19.216a5.467,5.467,0,0,1,5.461-5.461,5.429,5.429,0,0,1,2.148.44,33.657,33.657,0,0,0,2.4-12.543,33.932,33.932,0,0,0-1.168-8.819l-.194-.725.706-.257a8.315,8.315,0,0,0,.921-.4l.9-.453.265.967a36.654,36.654,0,0,1,1.306,9.685,36.342,36.342,0,0,1-2.9,14.3,5.433,5.433,0,0,1,1.084,3.262,5.467,5.467,0,0,1-5.46,5.46A5.467,5.467,0,0,1-167,19.216Zm2.184,0a3.28,3.28,0,0,0,3.277,3.276,3.279,3.279,0,0,0,3.276-3.276,3.279,3.279,0,0,0-3.276-3.277A3.28,3.28,0,0,0-164.816,19.216Z" transform="translate(552.779 1628.62)" fill="#01ad08" stroke="rgba(0,0,0,0)" stroke-miterlimit="10" stroke-width="1"/><path d="M-167-1.123a5.467,5.467,0,0,1,5.461-5.46,5.468,5.468,0,0,1,4.949,3.155,33.661,33.661,0,0,0,10-5.126L-146-9l.5.552a8.362,8.362,0,0,0,.717.7l.764.663-.809.61a36.325,36.325,0,0,1-11.27,5.744,5.468,5.468,0,0,1-5.446,5.065A5.467,5.467,0,0,1-167-1.123Zm2.184,0a3.28,3.28,0,0,0,3.277,3.277,3.279,3.279,0,0,0,3.276-3.277A3.279,3.279,0,0,0-161.539-4.4,3.28,3.28,0,0,0-164.816-1.123Z" transform="translate(528.752 1665.979)" fill="#01ad08" stroke="rgba(0,0,0,0)" stroke-miterlimit="10" stroke-width="1"/><path d="M-165.051,6.8a8.371,8.371,0,0,0-.9-.516L-167,5.759l.854-.8A36.562,36.562,0,0,1-149.9-3.915,5.468,5.468,0,0,1-144.448-9a5.467,5.467,0,0,1,5.461,5.46,5.467,5.467,0,0,1-5.461,5.461A5.468,5.468,0,0,1-149.4-1.232,33.9,33.9,0,0,0-164.041,6.72l-.473.438Zm17.327-10.34a3.28,3.28,0,0,0,3.276,3.277,3.28,3.28,0,0,0,3.277-3.277,3.28,3.28,0,0,0-3.277-3.276A3.28,3.28,0,0,0-147.724-3.54Z" transform="translate(503.009 1598.683)" fill="#01ad08" stroke="rgba(0,0,0,0)" stroke-miterlimit="10" stroke-width="1"/><path d="M-146.5,7.168a36.23,36.23,0,0,1-12.657-5.794,5.427,5.427,0,0,1-2.38.547A5.467,5.467,0,0,1-167-3.54,5.467,5.467,0,0,1-161.539-9a5.467,5.467,0,0,1,5.46,5.46,5.431,5.431,0,0,1-.951,3.076,33.521,33.521,0,0,0,10.911,4.92l.654.163-.045.841c-.006.095-.013.188-.013.284,0,.16.012.317.023.473l.083,1.214ZM-164.816-3.54a3.28,3.28,0,0,0,3.277,3.277,3.279,3.279,0,0,0,3.276-3.277,3.279,3.279,0,0,0-3.276-3.276A3.28,3.28,0,0,0-164.816-3.54Z" transform="translate(499.81 1658.658)" fill="#01ad08" stroke="rgba(0,0,0,0)" stroke-miterlimit="10" stroke-width="1"/></g></g></svg>