<svg xmlns="http://www.w3.org/2000/svg" xmlns:xlink="http://www.w3.org/1999/xlink" width="20" height="20" viewBox="0 0 20 20"><defs><clipPath id="a"><rect width="20" height="20" fill="#939393"/></clipPath></defs><g clip-path="url(#a)"><path d="M8.246,0a8.246,8.246,0,1,0,8.246,8.246A8.246,8.246,0,0,0,8.246,0Zm6.669,7.653a21.368,21.368,0,0,0-4.414.293q-.255-.611-.518-1.172c.109-.051.217-.1.323-.156a9.8,9.8,0,0,0,3.2-2.512A6.63,6.63,0,0,1,14.915,7.653ZM12.408,3a8.3,8.3,0,0,1-3.115,2.39c-.145-.274-.289-.535-.428-.78a30.207,30.207,0,0,0-1.9-2.939,6.768,6.768,0,0,1,1.28-.122A6.644,6.644,0,0,1,12.408,3Zm-8.9.511A6.7,6.7,0,0,1,5.405,2.18,28.056,28.056,0,0,1,7.537,5.415c.1.17.195.348.294.533a15.469,15.469,0,0,1-2.083.482,19.956,19.956,0,0,1-4.008.224A6.653,6.653,0,0,1,3.512,3.512ZM1.551,8.246c0-.016,0-.032,0-.048.286.015.65.028,1.075.028a21.233,21.233,0,0,0,3.332-.26,16.591,16.591,0,0,0,2.58-.62q.213.451.423.939A13.8,13.8,0,0,0,6.142,9.368a9.716,9.716,0,0,0-3.335,2.784A6.645,6.645,0,0,1,1.551,8.246ZM3.878,13.32A9.309,9.309,0,0,1,9.536,9.737a24.448,24.448,0,0,1,1.216,4.721A6.711,6.711,0,0,1,3.878,13.32Zm9.1-.34a6.788,6.788,0,0,1-.787.675,26.178,26.178,0,0,0-1.122-4.231,20.084,20.084,0,0,1,3.8-.219A6.644,6.644,0,0,1,12.981,12.981Z" transform="translate(1.866 1.866)" fill="#939393"/></g></svg>