<svg xmlns="http://www.w3.org/2000/svg" width="90.684" height="96.849" viewBox="0 0 90.684 96.849"><g transform="translate(-162 -1529)"><rect width="81" height="81" rx="40.5" transform="translate(162 1529)" fill="#ffccfd"/><g transform="translate(-7 10)"><g transform="translate(-1244.454 -448.131)"><g transform="translate(1463.195 1994.025)"><path d="M1464.813,2050.68a1.617,1.617,0,0,1-.953-.314,1.6,1.6,0,0,1-.516-1.974l10.449-25.243h-7.686a1.333,1.333,0,0,1-1.26-1.769l.031-.077,11.641-25.842a1.342,1.342,0,0,1,1.21-.846l24.73-.59a1.341,1.341,0,0,1,1.159.623,1.321,1.321,0,0,1,.061,1.313l-.04.072-12.345,19.709h9.12a1.332,1.332,0,0,1,1,2.219l-.068.068-35.443,32.228A1.6,1.6,0,0,1,1464.813,2050.68Zm.216-1.559,0,0Zm1.859-27.808h7.682a1.333,1.333,0,0,1,1.33,1.421l-.01.151-.058.139-10.432,25.2,33.707-30.648h-8.726a1.333,1.333,0,0,1-1.189-1.936l.041-.072,12.331-19.686-23.473.56Z" transform="translate(-1463.195 -1994.025)" fill="#a20b9c" stroke="#a2009c" stroke-width="0.6"/></g><g transform="translate(1473.788 2003.498)"><path d="M1481.418,2021.743a.919.919,0,0,1-.811-1.348l5.51-10.407a.918.918,0,1,1,1.622.859l-5.509,10.407A.917.917,0,0,1,1481.418,2021.743Z" transform="translate(-1480.5 -2009.5)" fill="#a20b9c" stroke="#a2009c" stroke-width="0.6"/></g></g><g transform="translate(177.741 1558.894)"><path d="M1502.205,1994.025a1.617,1.617,0,0,1,.953.314,1.6,1.6,0,0,1,.516,1.974l-10.449,25.243h7.686a1.333,1.333,0,0,1,1.26,1.769l-.031.077-11.641,25.842a1.342,1.342,0,0,1-1.21.846l-24.73.59a1.342,1.342,0,0,1-1.159-.623,1.321,1.321,0,0,1-.061-1.313l.04-.072,12.345-19.709h-9.12a1.332,1.332,0,0,1-1-2.219l.068-.068,35.443-32.228A1.6,1.6,0,0,1,1502.205,1994.025Zm-.216,1.559,0,0Zm-1.859,27.808h-7.682a1.333,1.333,0,0,1-1.33-1.421l.01-.151.058-.139,10.432-25.2-33.707,30.648h8.726a1.333,1.333,0,0,1,1.189,1.936l-.041.072-12.331,19.686,23.473-.56Z" transform="translate(-1463.194 -1994.025)" fill="#a20b9c" stroke="#a2009c" stroke-width="0.6"/><g transform="translate(22.689 34.938)"><path d="M1486.928,2009.5a.919.919,0,0,1,.811,1.348l-5.51,10.407a.918.918,0,1,1-1.622-.859l5.509-10.407A.917.917,0,0,1,1486.928,2009.5Z" transform="translate(-1480.5 -2009.5)" fill="#a20b9c" stroke="#a2009c" stroke-width="0.6"/></g></g></g></g></svg>