<svg xmlns="http://www.w3.org/2000/svg" xmlns:xlink="http://www.w3.org/1999/xlink" width="552.409" height="410.018" viewBox="0 0 552.409 410.018"><defs><linearGradient id="a" x1="0.599" y1="0.288" x2="0.344" y2="1.084" gradientUnits="objectBoundingBox"><stop offset="0.053" stop-color="#a1c1ed"/><stop offset="1" stop-color="#a1c1ed" stop-opacity="0"/></linearGradient><linearGradient id="b" x1="0.363" y1="-0.192" x2="0.504" y2="0.664" xlink:href="#a"/><linearGradient id="c" y1="0.5" x2="1" y2="0.5" gradientUnits="objectBoundingBox"><stop offset="0" stop-color="#f04f4f"/><stop offset="0.147" stop-color="#f04f4f" stop-opacity="0.984"/><stop offset="0.278" stop-color="#f04f4f" stop-opacity="0.941"/><stop offset="0.404" stop-color="#f04f4f" stop-opacity="0.863"/><stop offset="0.526" stop-color="#f04f4f" stop-opacity="0.757"/><stop offset="0.645" stop-color="#f04f4f" stop-opacity="0.62"/><stop offset="0.763" stop-color="#f04f4f" stop-opacity="0.447"/><stop offset="0.879" stop-color="#f04f4f" stop-opacity="0.247"/><stop offset="0.991" stop-color="#f04f4f" stop-opacity="0.02"/><stop offset="1" stop-color="#f04f4f" stop-opacity="0"/></linearGradient><linearGradient id="d" x1="0.5" y1="-0.798" x2="0.5" y2="0.929" gradientUnits="objectBoundingBox"><stop offset="0.027" stop-color="#0c3069"/><stop offset="1" stop-color="#0c3069" stop-opacity="0"/></linearGradient><linearGradient id="e" x1="-0.364" y1="0.04" x2="1.171" y2="0.822" gradientUnits="objectBoundingBox"><stop offset="0" stop-color="#0c3069"/><stop offset="1" stop-color="#0c3069" stop-opacity="0"/></linearGradient><linearGradient id="f" x1="1.22" y1="-0.096" x2="-0.576" y2="0.991" xlink:href="#e"/><linearGradient id="h" x1="0.497" y1="0.068" x2="0.272" y2="1.462" xlink:href="#e"/><linearGradient id="i" y1="0.5" x2="1" y2="0.5" gradientUnits="objectBoundingBox"><stop offset="0.043" stop-color="#ffa526"/><stop offset="1" stop-color="#ff6026"/></linearGradient><linearGradient id="j" x1="-490.998" y1="-79.179" x2="-28626.316" y2="-4640.127" gradientUnits="objectBoundingBox"><stop offset="0" stop-color="#80371d" stop-opacity="0.894"/><stop offset="0.069" stop-color="#80371d"/><stop offset="1" stop-color="#80371d" stop-opacity="0"/></linearGradient><linearGradient id="k" x1="1.029" y1="0.74" x2="0.1" y2="0.324" gradientUnits="objectBoundingBox"><stop offset="0" stop-color="#80371d"/><stop offset="1" stop-color="#80371d" stop-opacity="0"/></linearGradient><linearGradient id="l" x1="0.594" y1="0.828" x2="0.354" y2="0.069" xlink:href="#k"/><linearGradient id="m" x1="0.567" y1="-0.079" x2="0.386" y2="0.95" xlink:href="#c"/><linearGradient id="o" x1="1.265" y1="0.497" x2="0.137" y2="0.503" xlink:href="#i"/><linearGradient id="p" x1="0.5" y1="1.329" x2="0.5" y2="0.153" gradientUnits="objectBoundingBox"><stop offset="0.044" stop-color="#87b2ed"/><stop offset="1" stop-color="#fff"/></linearGradient><linearGradient id="q" x1="0.5" y1="-0.062" x2="0.5" y2="1.224" gradientUnits="objectBoundingBox"><stop offset="0.033"/><stop offset="1" stop-opacity="0"/></linearGradient><linearGradient id="s" x1="0.725" y1="-0.189" x2="0.329" y2="1.21" xlink:href="#e"/><linearGradient id="u" x1="1.786" y1="0.061" x2="-0.227" y2="0.913" xlink:href="#q"/><linearGradient id="w" x1="0.5" y1="-1.907" x2="0.5" y2="5.551" gradientUnits="objectBoundingBox"><stop offset="0"/><stop offset="0.931" stop-opacity="0"/></linearGradient></defs><g transform="translate(-59.563 65.895)"><g transform="translate(86.998 19.419)"><g transform="translate(0 0)"><path d="M665.493,191.412a156.156,156.156,0,0,1,5.963,34.26c3.046,44.57-9.159,83.846-19.933,108.948a265.83,265.83,0,0,1-17,33.092" transform="translate(-181.875 -84.092)" fill="none" stroke="#cedbed" stroke-miterlimit="10" stroke-width="2.118" opacity="0.3"/><path d="M103.462,360.161c-12.814-63.614-14.9-114.937-6.376-156.712a190.857,190.857,0,0,1,14.791-44.73" transform="translate(-91.959 -78.674)" fill="none" stroke="#cedbed" stroke-miterlimit="10" stroke-width="2.118" opacity="0.3"/><path d="M656.908,183.822c4.613,12.149,7.416,25.777,8.455,40.976,2.97,43.45-8.963,81.822-19.5,106.36a257.48,257.48,0,0,1-18.253,35.015" transform="translate(-180.73 -82.834)" fill="none" stroke="#cedbed" stroke-miterlimit="10" stroke-width="2.118" opacity="0.3"/><path d="M109.523,358.29C96.658,294.913,94.5,243.966,102.918,202.7c4.2-20.593,11.14-39.128,20.691-55.295" transform="translate(-92.944 -76.799)" fill="none" stroke="#cedbed" stroke-miterlimit="10" stroke-width="2.118" opacity="0.3"/><path d="M647.531,176.239c6.592,13.642,10.467,29.482,11.712,47.688,2.894,42.33-8.767,79.8-19.058,103.772a246.718,246.718,0,0,1-19.646,37.066" transform="translate(-179.557 -81.577)" fill="none" stroke="#cedbed" stroke-miterlimit="10" stroke-width="2.118" opacity="0.3"/><path d="M115.583,356.433c-12.913-63.141-15.146-113.71-6.834-154.469,5.178-25.39,14.628-47.52,28.088-65.774" transform="translate(-93.929 -74.94)" fill="none" stroke="#cedbed" stroke-miterlimit="10" stroke-width="2.118" opacity="0.3"/><path d="M122.428,348.32H528.315s46.786-62.756,41.332-142.535-61.9-99.668-132.974-112.709S282.38,42.789,199.147,81.7C99.182,128.425,99.16,238.1,122.428,348.32Z" transform="translate(-94.908 -63.051)" fill="#cedbed"/><path d="M122.428,348.32H528.315s46.786-62.756,41.332-142.535-61.9-99.668-132.974-112.709S282.38,42.789,199.147,81.7C99.182,128.425,99.16,238.1,122.428,348.32Z" transform="translate(-85.131 -64.448)" fill="none" stroke="#000" stroke-width="1"/></g><path d="M338.563,282.671C331.1,208.167,243,210.206,243,210.206c-31.207-46.727-87.038-47.374-114.349-44.459-26.758,54.289-21.54,126.624-6.22,199.2h301.9C414.078,286.333,338.563,282.671,338.563,282.671Z" transform="translate(-94.909 -79.676)" fill="url(#a)"/><path d="M584.941,365.647s46.786-62.756,41.332-142.535c-1.528-22.349-7.06-40-15.793-54.112-27.821,5.941-72.073,23.26-103.528,73.643a512.525,512.525,0,0,0-55.513,123Z" transform="translate(-151.534 -80.378)" fill="url(#b)"/></g><g transform="translate(201.226 56.791)"><rect width="251.545" height="95.039" transform="translate(0)" fill="#cedbed" stroke="#000" stroke-width="1" opacity="0.19"/><path d="M347.235,235.658a8.859,8.859,0,1,1,8.859-8.859,8.859,8.859,0,0,1-8.859,8.859Zm0-16.537a7.678,7.678,0,1,0,7.678,7.678,7.678,7.678,0,0,0-7.678-7.678Z" transform="translate(-323.742 -207.975)" opacity="0.195"/><path d="M358.189,233.875h-.016l-.935.5-.14-.554,1.175-.629h.621v5.378h-.7Z" transform="translate(-334.893 -217.062)" opacity="0.195"/><path d="M329.256,293.262a.607.607,0,1,0-.586-.607A.607.607,0,0,0,329.256,293.262Z" transform="translate(-317.962 -252.113)" opacity="0.195"/><path d="M329.255,309.327a.607.607,0,1,0-.586-.607A.607.607,0,0,0,329.255,309.327Z" transform="translate(-317.962 -261.681)" opacity="0.195"/><path d="M329.255,325.392a.607.607,0,1,0-.586-.607A.607.607,0,0,0,329.255,325.392Z" transform="translate(-317.962 -271.249)" opacity="0.195"/><path d="M329.256,341.457a.607.607,0,1,0-.586-.607A.607.607,0,0,0,329.256,341.457Z" transform="translate(-317.962 -280.817)" opacity="0.195"/><path d="M329.256,357.521a.607.607,0,1,0-.586-.607A.607.607,0,0,0,329.256,357.521Z" transform="translate(-317.962 -290.386)" opacity="0.195"/><path d="M329.256,373.586a.607.607,0,1,0-.586-.607A.607.607,0,0,0,329.256,373.586Z" transform="translate(-317.962 -299.954)" opacity="0.195"/><path d="M362.247,293.269h-18.9a.591.591,0,1,1,0-1.181h18.9a.591.591,0,1,1,0,1.181Z" transform="translate(-326.352 -252.137)" opacity="0.195"/><path d="M362.247,309.334h-18.9a.591.591,0,1,1,0-1.181h18.9a.591.591,0,1,1,0,1.181Z" transform="translate(-326.352 -261.705)" opacity="0.195"/><path d="M362.247,325.4h-18.9a.591.591,0,1,1,0-1.181h18.9a.591.591,0,1,1,0,1.181Z" transform="translate(-326.352 -271.273)" opacity="0.195"/><path d="M362.247,341.464h-18.9a.591.591,0,1,1,0-1.181h18.9a.591.591,0,1,1,0,1.181Z" transform="translate(-326.352 -280.841)" opacity="0.195"/><path d="M362.247,357.529h-18.9a.591.591,0,1,1,0-1.181h18.9a.591.591,0,1,1,0,1.181Z" transform="translate(-326.352 -290.409)" opacity="0.195"/><path d="M362.247,373.594h-18.9a.591.591,0,0,1,0-1.181h18.9a.591.591,0,1,1,0,1.181Z" transform="translate(-326.352 -299.977)" opacity="0.195"/><path d="M491.16,311.574H439.007a.59.59,0,0,1-.591-.591V290.123a.59.59,0,0,1,.591-.591H491.16a.59.59,0,0,1,.591.591v20.861a.59.59,0,0,1-.591.591ZM439.6,310.393h50.972v-19.68H439.6Z" transform="translate(-383.325 -250.615)" opacity="0.195"/><path d="M461.172,363.092H439.007a.59.59,0,0,1-.591-.591v-8.866a.59.59,0,0,1,.591-.591h22.165a.59.59,0,0,1,.591.591V362.5a.59.59,0,0,1-.591.591ZM439.6,361.911h20.984v-7.685H439.6Z" transform="translate(-383.325 -288.442)" opacity="0.195"/><path d="M535.323,363.092H513.158a.59.59,0,0,1-.591-.591v-8.866a.59.59,0,0,1,.591-.591h22.165a.59.59,0,0,1,.591.591V362.5a.59.59,0,0,1-.591.591Zm-21.574-1.181h20.984v-7.685H513.749Z" transform="translate(-427.489 -288.442)" opacity="0.195"/><path d="M490.508,310.923a.59.59,0,0,1-.216-.041l-51.5-20.209a.59.59,0,0,1,.431-1.1l51.5,20.209a.591.591,0,0,1-.216,1.14Z" transform="translate(-383.325 -250.615)" opacity="0.195"/><path d="M439.007,311.574a.591.591,0,0,1-.22-1.139l52.153-20.861a.591.591,0,0,1,.438,1.1l-52.153,20.861A.589.589,0,0,1,439.007,311.574Z" transform="translate(-383.325 -250.614)" opacity="0.195"/><path d="M461.325,362.862a.594.594,0,0,1-.216-.041L439.6,354.345a.591.591,0,1,1,.433-1.1l21.513,8.475a.591.591,0,0,1-.216,1.14Z" transform="translate(-383.805 -288.537)" opacity="0.195"/><path d="M439.812,363.823a.59.59,0,0,1-.2-1.145l21.513-7.823a.59.59,0,0,1,.4,1.11l-21.513,7.823A.591.591,0,0,1,439.812,363.823Z" transform="translate(-383.805 -289.498)" opacity="0.195"/><path d="M536.438,363.822a.6.6,0,0,1-.208-.038l-20.861-7.823a.591.591,0,0,1,.415-1.106l20.861,7.823a.591.591,0,0,1-.208,1.144Z" transform="translate(-428.929 -289.498)" opacity="0.195"/><path d="M515.578,363.171a.591.591,0,0,1-.192-1.149l20.861-7.171a.59.59,0,1,1,.384,1.117l-20.861,7.171A.589.589,0,0,1,515.578,363.171Z" transform="translate(-428.93 -289.498)" opacity="0.195"/><path d="M491.819,235.658a8.859,8.859,0,1,1,8.859-8.859A8.859,8.859,0,0,1,491.819,235.658Zm0-16.537A7.678,7.678,0,1,0,499.5,226.8,7.678,7.678,0,0,0,491.819,219.12Z" transform="translate(-409.855 -207.975)" opacity="0.195"/><path d="M671.454,235.658a8.859,8.859,0,1,1,8.859-8.859,8.859,8.859,0,0,1-8.859,8.859Zm0-16.537a7.678,7.678,0,1,0,7.678,7.678,7.678,7.678,0,0,0-7.678-7.678Z" transform="translate(-516.843 -207.975)" opacity="0.195"/><path d="M859.656,235.658a8.859,8.859,0,1,1,8.859-8.859A8.859,8.859,0,0,1,859.656,235.658Zm0-16.537a7.678,7.678,0,1,0,7.678,7.678A7.678,7.678,0,0,0,859.656,219.12Z" transform="translate(-628.934 -207.975)" opacity="0.195"/><path d="M500.991,238.544V238.1l.57-.554c1.374-1.307,1.995-2,2-2.813a.959.959,0,0,0-1.067-1.05,1.832,1.832,0,0,0-1.142.454l-.232-.513a2.361,2.361,0,0,1,1.523-.546,1.513,1.513,0,0,1,1.646,1.564c0,.993-.72,1.8-1.853,2.887l-.43.4v.016h2.416v.6Z" transform="translate(-420.594 -216.986)" opacity="0.195"/><path d="M870.333,238.574v-1.464h-2.5v-.48l2.4-3.434h.786v3.342h.753v.571h-.753v1.464Zm0-2.035v-1.795q0-.422.025-.844h-.025c-.165.315-.3.546-.446.795l-1.316,1.828v.017Z" transform="translate(-639.081 -217.062)" opacity="0.195"/><path d="M681.96,237.6a2.438,2.438,0,0,0,1.191.339c.936,0,1.225-.6,1.216-1.042-.008-.753-.687-1.076-1.389-1.076h-.406v-.546h.406c.529,0,1.2-.273,1.2-.91,0-.43-.273-.811-.944-.811a1.967,1.967,0,0,0-1.075.356l-.19-.529a2.553,2.553,0,0,1,1.406-.414c1.059,0,1.539.629,1.539,1.283a1.336,1.336,0,0,1-.993,1.265v.017a1.4,1.4,0,0,1,1.2,1.381c0,.861-.67,1.614-1.96,1.614a2.729,2.729,0,0,1-1.4-.365Z" transform="translate(-528.259 -216.928)" opacity="0.195"/><path d="M675.176,325.544H623.023a.59.59,0,0,1-.591-.591v-33.37a.59.59,0,0,1,.591-.591h52.153a.59.59,0,0,1,.591.591v33.37a.59.59,0,0,1-.591.591Zm-51.562-1.181h50.972V292.174H623.613Z" transform="translate(-492.923 -251.484)" opacity="0.195"/><path d="M681.935,307.508H650.041a.591.591,0,0,1,0-1.181h31.894a.591.591,0,1,1,0,1.181Z" transform="translate(-509.015 -260.617)" opacity="0.195"/><path d="M681.935,320.652H650.041a.591.591,0,0,1,0-1.181h31.894a.591.591,0,1,1,0,1.181Z" transform="translate(-509.015 -268.446)" opacity="0.195"/><path d="M681.935,333.8H650.041a.591.591,0,0,1,0-1.181h31.894a.591.591,0,1,1,0,1.181Z" transform="translate(-509.015 -276.274)" opacity="0.195"/><path d="M681.935,346.941H650.041a.591.591,0,0,1,0-1.181h31.894a.591.591,0,1,1,0,1.181Z" transform="translate(-509.015 -284.103)" opacity="0.195"/><path d="M681.935,360.085H650.041a.591.591,0,0,1,0-1.181h31.894a.591.591,0,1,1,0,1.181Z" transform="translate(-509.015 -291.931)" opacity="0.195"/><path d="M865.027,324.478H852.313a3.175,3.175,0,0,1-3.172-3.172V288.59a3.175,3.175,0,0,1,3.172-3.171h1.542a.591.591,0,0,1,.548.812.637.637,0,0,0,.588.878h7.248a.637.637,0,0,0,.589-.876.59.59,0,0,1,.547-.813h1.652a3.175,3.175,0,0,1,3.172,3.171v32.717A3.175,3.175,0,0,1,865.027,324.478ZM852.313,286.6a1.993,1.993,0,0,0-1.991,1.99v32.717a1.993,1.993,0,0,0,1.991,1.991h12.714a1.993,1.993,0,0,0,1.991-1.991V288.59a1.993,1.993,0,0,0-1.991-1.99h-.975a1.82,1.82,0,0,1-1.812,1.689h-7.248a1.819,1.819,0,0,1-1.812-1.689Z" transform="translate(-627.948 -248.165)" opacity="0.195"/><path d="M800.94,327.273H784.4a.591.591,0,0,1,0-1.181h15.112l-3.422-3.421a.591.591,0,0,1,.835-.835l4.43,4.43a.591.591,0,0,1-.418,1.008Z" transform="translate(-589.039 -269.751)" opacity="0.195"/><path d="M815.072,337.931a.591.591,0,0,1-.418-1.008l4.134-4.134a.591.591,0,0,1,.835.835l-4.134,4.134A.589.589,0,0,1,815.072,337.931Z" transform="translate(-607.305 -276.274)" opacity="0.195"/></g><path d="M6.984,0H531.458c3.857,0,4.784,1.645,6.984,7.652s13.967,29.076,13.967,29.076c0,4.226-3.127,7.652-6.984,7.652H20.951c-3.857,0-6.984-3.426-6.984-7.652L0,7.652C0,3.426,3.127,0,6.984,0Z" transform="translate(59.563 299.744)" fill="#dedede"/><g transform="translate(353.193 229.417)"><g transform="translate(0 6.547)"><line x1="7.893" y2="81.813" fill="none" stroke="#1656bd" stroke-miterlimit="10" stroke-width="3.171"/><line x2="7.893" y2="81.813" transform="translate(33.215)" fill="none" stroke="#1656bd" stroke-miterlimit="10" stroke-width="3.171"/><line x2="29.384" transform="translate(5.926 20.395)" fill="none" stroke="#1656bd" stroke-miterlimit="10" stroke-width="3.171"/><line x2="32.614" transform="translate(4.311 38.443)" fill="none" stroke="#1656bd" stroke-miterlimit="10" stroke-width="3.341"/></g><rect width="41.109" height="8.893" rx="3.4" fill="#0c3069"/></g><g transform="translate(418.586 229.417)"><g transform="translate(0 6.547)"><line x1="7.893" y2="81.813" fill="none" stroke="#1656bd" stroke-miterlimit="10" stroke-width="3.171"/><line x2="7.893" y2="81.813" transform="translate(33.215)" fill="none" stroke="#1656bd" stroke-miterlimit="10" stroke-width="3.171"/><line x2="29.384" transform="translate(5.926 20.395)" fill="none" stroke="#1656bd" stroke-miterlimit="10" stroke-width="3.171"/><line x2="32.614" transform="translate(4.311 38.443)" fill="none" stroke="#1656bd" stroke-miterlimit="10" stroke-width="3.341"/></g><rect width="41.109" height="8.893" rx="3.4" transform="translate(0)" fill="#0c3069"/></g><g transform="translate(332.599 94.677)"><ellipse cx="5.756" cy="3.131" rx="5.756" ry="3.131" transform="translate(29.476 227.149)" fill="#cedbed"/><g transform="translate(28.476 197.199)"><path d="M385.439,383.775l.178,16.329a14.336,14.336,0,0,1,.858,5.029c-.024,2.867,2.545,7.292.269,9.347s-4.938.346-5.134-2.528-.027-5.663-.782-7.233-.888-4.126.18-5.277l-2.756-15.4Z" transform="translate(-378.251 -383.775)" fill="#ff6d6d"/><path d="M384.882,408.768c-.256.026-.531.057-.805.094a1.38,1.38,0,0,1-1.545-1.07l-1.13-5.238c-1.069,1.15-.936,3.708-.18,5.277s.586,4.358.782,7.233,2.858,4.583,5.134,2.528-.293-6.481-.269-9.347a14.336,14.336,0,0,0-.858-5.029l.15,4.075A1.428,1.428,0,0,1,384.882,408.768Z" transform="translate(-378.645 -386.887)" fill="#0c3069"/></g><g transform="translate(64.51 191.494)"><path d="M428.53,376.937l2.358,16.159a14.335,14.335,0,0,1,1.522,4.87c.359,2.844,3.5,6.887,1.516,9.227s-4.848,1-5.426-1.82-.783-5.608-1.742-7.063-1.432-3.971-.526-5.254l-4.789-14.892Z" transform="translate(-421.442 -376.937)" fill="#ff6d6d"/><path d="M431.366,401.95c-.25.06-.518.128-.785.2a1.381,1.381,0,0,1-1.674-.854l-1.82-5.04c-.905,1.283-.431,3.8.526,5.254s1.164,4.241,1.742,7.063,3.445,4.16,5.426,1.82-1.157-6.383-1.516-9.227a14.333,14.333,0,0,0-1.522-4.87l.693,4.018A1.427,1.427,0,0,1,431.366,401.95Z" transform="translate(-422.297 -380.139)" fill="#0c3069"/></g><path d="M372.428,216.746s9.755,8.065,20.667,2.977c0,0-.037-1.268,1.066-1.268s5.474.8,11.536,3.674c8.525,4.042,27.994,25.907,27.19,36.963-.588,8.083-6.466,10.729-11.757,10.509s-4.85-9.186-4.85-9.186l-16.607-13.962L396.586,269.6h-35.42l-5-36.228-12.052-51.513a14.6,14.6,0,0,1,4.235-6.981,6.394,6.394,0,0,1,6.789-1.029Z" transform="translate(-344.118 -151.695)" fill="#0c3069"/><path d="M372.428,216.746l-17.287-42.9a6.394,6.394,0,0,0-6.789,1.029,14.6,14.6,0,0,0-4.235,6.981l12.052,51.513C367.854,242.337,372.428,216.746,372.428,216.746Z" transform="translate(-344.118 -151.695)" fill="#103f8a"/><path d="M431.8,278.983c5.291.22,11.169-2.425,11.757-10.509.8-11.057-18.665-32.921-27.19-36.963-1.323-.627-2.56-1.15-3.706-1.593h0c-7.766,12.687-2.319,25.918-2.319,25.918L426.947,269.8S426.507,278.762,431.8,278.983Z" transform="translate(-354.785 -161.078)" fill="#103f8a"/><path d="M439.274,278.3c.1,5.351-1.5,8.992-4.608,8.616s-4.614-5.394-4.073-9.2Z" transform="translate(-358.431 -169)" fill="#08224a"/><g transform="translate(42.05 83)"><path d="M417.949,280.833H394.521l5.26-32.269h23.428Z" transform="translate(-394.521 -247.168)" fill="#ffa526"/><path d="M417.439,250.932h-7.71l.659-4.042h7.71Z" transform="translate(-397.041 -246.89)" fill="none" stroke="#fff" stroke-miterlimit="10" stroke-width="0.72"/></g><path d="M373.533,304.143c12.78.387,11.464,68.195,11.464,68.195H371.916s-3.058-5.774-3.086-10.876c-.029-5.25-2.5-10.73-3.234-16.314S354.133,303.554,373.533,304.143Z" transform="translate(-347.078 -173.378)" fill="#80371d"/><line x1="15.109" transform="translate(22.848 194.103)" fill="none" stroke="#ffa526" stroke-miterlimit="10" stroke-width="0.72"/><path d="M406.445,299.492c12.718-1.325,20.473,66.05,20.473,66.05l-12.963,1.748s-3.8-5.314-4.512-10.366c-.73-5.2-3.909-10.3-5.384-15.735S387.14,301.5,406.445,299.492Z" transform="translate(-352.852 -172.605)" fill="#80371d"/><line x1="14.521" y2="2.019" transform="translate(59.016 188.676)" fill="none" stroke="#ffa526" stroke-miterlimit="10" stroke-width="0.72"/><path d="M383.728,214.939l-.647,7.995a1.417,1.417,0,0,1-1.648,1.283l-3.382-.571s1.984,11.3,10.527,12.9,10.141-9.922,10.141-9.922l-4.685-.805-2.425-10.879Z" transform="translate(-349.742 -158.596)" fill="#ff6d6d"/><path d="M392.688,214.939h-7.881l-.251,3.106a13.521,13.521,0,0,0,9.836,4.535Z" transform="translate(-350.819 -158.596)" fill="url(#c)"/><path d="M380.86,206.026s-4.189-7.863.515-10.876c2.424-5.254,12.86-4.446,15.322,1.359a8.058,8.058,0,0,1-1.837,9.37Z" transform="translate(-349.922 -154.735)" fill="#d92727"/><circle cx="4.905" cy="4.905" r="4.905" transform="translate(29.877 30.164)" fill="#d92727"/><path d="M396.1,206.893a1.374,1.374,0,0,0-1.367-.075c.211-1.527.365-2.791.365-2.791s-6.834.955-11.1-3.38c0,0-.514,3.821-2.5,5.218,0,0,.013.347.054.886a1.414,1.414,0,0,0-1.212.143c-.882.5-.37,2.713,1.578,2.79.28,1.537.74,3.1,1.49,3.75,1.69,1.47,3.968,2.72,5.218,2.645s4.776-2.939,5.217-4.188a17.248,17.248,0,0,0,.459-2.22,1.548,1.548,0,0,0,.214.012C396.472,209.606,396.983,207.39,396.1,206.893Z" transform="translate(-350.053 -156.227)" fill="#ff6d6d"/><path d="M431.3,271.618l-26.344-5.953s-4.519-6.064-5.842-6.339.551,2.057.551,2.057-1.886-1.34-2.376-.458a2.8,2.8,0,0,0,0,2.094s-.6.914.943,2.441,5.732,2.52,5.732,2.52,19.683,12.3,24.25,14S436.373,273.932,431.3,271.618Z" transform="translate(-352.894 -165.948)" fill="#ff6d6d"/><path d="M355.141,173.849a6.394,6.394,0,0,0-6.789,1.029,14.6,14.6,0,0,0-4.235,6.981C348.233,185.092,354.847,177.45,355.141,173.849Z" transform="translate(-344.118 -151.695)" fill="#08224a"/><path d="M355.083,170.393l-4.927-15.974s1.819-3.748,1.543-4.85-1.543-.772-1.543-.772a6.122,6.122,0,0,0-.423-1.378c-.184-.22-4.7,1.874-4.7,1.874s-.827,2.48.331,3.142a2.028,2.028,0,0,0,1.6,2.48l4.181,21.231A12.942,12.942,0,0,0,355.083,170.393Z" transform="translate(-344.222 -147.404)" fill="#ff6d6d"/></g><g transform="translate(280.592 229.417)"><g transform="translate(0 6.547)"><line x1="7.893" y2="81.813" fill="none" stroke="#1656bd" stroke-miterlimit="10" stroke-width="3.171"/><line x2="7.893" y2="81.813" transform="translate(33.215)" fill="none" stroke="#1656bd" stroke-miterlimit="10" stroke-width="3.171"/><line x2="29.384" transform="translate(5.926 20.395)" fill="none" stroke="#1656bd" stroke-miterlimit="10" stroke-width="3.171"/><line x2="32.614" transform="translate(4.311 38.443)" fill="none" stroke="#1656bd" stroke-miterlimit="10" stroke-width="3.341"/></g><rect width="41.109" height="8.893" rx="3.4" fill="#0c3069"/></g><path d="M246.186,106.352H167.854c-15.872,0-8.818-13.227,0-15.578s6.76-16.46,22.632-22.045c8.812-3.1,17.929,5.879,17.929,5.879s9.994-3.234,18.811,3.233c5.926,4.346,10.4,13.931,18.959,14.108C260.294,92.244,266.319,106.352,246.186,106.352Z" transform="translate(27.234 -133.973)" fill="#a1c1ed"/><path d="M594.572,162.493s-3.249-4.669-8.485,0c0,0,7.424-1.115,8.485,4.478,1.06-5.594,8.485-4.478,8.485-4.478C597.82,157.823,594.572,162.493,594.572,162.493Z" transform="translate(-86.85 -59.536)" fill="#a1c1ed"/><g transform="translate(135.247 80.519)"><path d="M164.714,426.36c1,2.154-3.667,6.433-10.417,9.557s-13.031,3.911-14.028,1.758,3.667-6.433,10.417-9.557S163.717,424.207,164.714,426.36Z" transform="translate(-112.961 -179.274)" fill="#cedbed"/><path d="M216.215,425.01c-1,2.154,3.667,6.432,10.418,9.557s13.03,3.912,14.027,1.758-3.667-6.432-10.417-9.557S217.212,422.856,216.215,425.01Z" transform="translate(-125.547 -179.05)" fill="#cedbed"/><path d="M219.217,410.107l1.323,9.406s-1.47,4.483,0,6.026,7.2,3.674,7.2,3.674,9.332,4.556,10.8,3.6-8.083-10.729-8.083-10.729l-3.16-7.2-.71-4.56Z" transform="translate(-126.067 -176.782)" fill="#0c3069"/><path d="M228.53,418.828a4.52,4.52,0,0,0-2.954,4.144l-4.9-2.013s-1.47,4.483,0,6.026,7.2,3.674,7.2,3.674,9.332,4.556,10.8,3.6-8.083-10.729-8.083-10.729Z" transform="translate(-126.2 -178.227)" fill="#16a3bd"/><path d="M162.613,410.107v9.406a7.452,7.452,0,0,1,0,6.173c-1.543,3.086-19.069,8.928-19.951,8.157s8.377-9.37,8.377-9.37l4.079-7.091.22-7.276Z" transform="translate(-113.37 -176.782)" fill="#0c3069"/><path d="M154.43,420.261l-3.391,5.895s-9.259,8.6-8.377,9.37,18.407-5.071,19.951-8.157a6.879,6.879,0,0,0,.579-4.24l-4.648,1.043A5.661,5.661,0,0,0,154.43,420.261Z" transform="translate(-113.37 -178.465)" fill="#16a3bd"/><path d="M198.338,252.792,201.2,276.6s3.968,15.872,4.85,26.9,12.566,82.009,12.566,82.009H205.614s-1.985-4.189-1.543-7.936-4.189-7.055-3.527-11.243-4.629-12.125-5.732-19.842-18.077-61.507-18.077-61.507L168.8,349.131s1.323,11.243,0,16.093-.441,11.684-2.646,20.282H153.285s-1.683-50.7-1.9-63.05-.1-54.2,4.959-69.664Z" transform="translate(-114.815 -150.711)" fill="#0f3d85"/><path d="M153.02,275.224c13.89-9.161,37.82-14.713,46.317-16.474l-.717-5.958h-42C154.921,257.992,153.779,266.181,153.02,275.224Z" transform="translate(-115.096 -150.711)" fill="url(#d)"/><path d="M165.243,168.409s10.453-13.962,24.48,0c0,0,18.4-.294,22.7,14.036l10.141,28.512,33.216,11.022-1.323,5.826s-25.279,2.444-36.154,0-18.078-16.555-18.078-16.555l-1.469,23.221s2.057,2.792,1.469,4.409-5.125,1.91-10.5,1.91H154.808l-7.642-66.871A71.942,71.942,0,0,1,165.243,168.409Z" transform="translate(-114.126 -135.699)" fill="#1656bd"/><path d="M148.647,252.356s2.566,1.552,4.357.835,3.1-2.447,6.089-2.865,3.582-.119,3.582.3-4.059.776-5.611,1.91c0,0,6.679-1.2,6.805.06.059.6-5.611.716-6.924,1.552,0,0,6.446-.537,6.507,0s-5.611.855-6.506,1.651c0,0,4.655.02,4.357.975s-2.865-.3-4.835.657-3.462,1.313-5.551,0a13.3,13.3,0,0,0-3.342-1.632Z" transform="translate(-114.194 -150.269)" fill="#ff6d6d"/><path d="M224.126,231.558c-.008-.017-3.914-8.391-5.989-12.266s.415-9.421,1.108-14.269-5.454-9.029-5.454-9.029l-3.029,20.858S215.932,226.977,224.126,231.558Z" transform="translate(-124.665 -141.298)" fill="url(#e)"/><path d="M140.6,176.228c4.354-1.9,7.778,23.962,3.393,29.691s-15.628,18.626-15.628,18.626,2.2.661,0,2.645l16.093,12.9-1.488,5.346s-17.471-3.913-29.044-10.086-4.3-20.081-1.874-24.977S126.8,191.7,126.8,191.7,131.343,180.27,140.6,176.228Z" transform="translate(-107.563 -138.006)" fill="#1656bd"/><path d="M142.057,193.336s.425,5.038,7.414,13.322" transform="translate(-113.28 -140.858)" fill="none" stroke="#0c3069" stroke-miterlimit="10" stroke-width="0.889"/><path d="M143.229,199.539s-3.877,9.067-1.847,11.044c1.78,1.734-4,8.658-3.346,12.482,3.624-4.229,8.462-9.948,11-13.266a5.856,5.856,0,0,0,.652-1.134C148.018,206.683,144.325,202.149,143.229,199.539Z" transform="translate(-112.604 -141.886)" fill="url(#f)"/><line x1="13.604" transform="translate(89.224 228.822)" fill="none" stroke="#0c3069" stroke-miterlimit="10" stroke-width="0.889"/><line x1="13.604" transform="translate(38.372 228.822)" fill="none" stroke="#0c3069" stroke-miterlimit="10" stroke-width="0.889"/><line y1="29.934" transform="translate(61.825 105.094)" fill="none" stroke="#0c3069" stroke-miterlimit="10" stroke-width="0.889"/><path d="M186.283,256.4v12.089a7.719,7.719,0,0,1-4.614,7.5" transform="translate(-119.844 -151.31)" fill="none" stroke="#0c3069" stroke-miterlimit="10" stroke-width="0.889"/><path d="M198.176,256.4s-.5,8.884,9.943,13.738" transform="translate(-122.579 -151.31)" fill="none" stroke="#0c3069" stroke-miterlimit="10" stroke-width="0.889"/><path d="M162.4,255.648s-3.8,15.048-8.942,16.032" transform="translate(-115.169 -151.184)" fill="none" stroke="#0c3069" stroke-miterlimit="10" stroke-width="0.889"/><path d="M205.653,331.45a9.58,9.58,0,0,0,5,2.792" transform="translate(-123.819 -163.747)" fill="none" stroke="#0c3069" stroke-miterlimit="10" stroke-width="0.889"/><path d="M166.881,332.331a45.776,45.776,0,0,1-8.061,4.556" transform="translate(-116.058 -163.893)" fill="none" stroke="#0c3069" stroke-miterlimit="10" stroke-width="0.889"/><path d="M174.058,150.493l-5.649-7.969s-5.246-3.833-2.219-9.079,12.71-2.32,17.249-1.009c0,0,9.28.5,9.28,6.859s-7.162,11.2-7.162,11.2Z" transform="translate(-117.123 -130.433)" fill="#0f3d85"/><path d="M177.8,158.72l-1.375,9.23a2.526,2.526,0,0,0,.91,2.369,7.788,7.788,0,0,0,8.677-.048,2.561,2.561,0,0,0,.974-2.422l-1.36-9.13Z" transform="translate(-118.971 -135.121)" fill="#ff6d6d"/><path d="M176.426,168.29c4.181-.051,7.883-2.521,10-4.284l-.787-5.286h-7.826l-1.375,9.23A2.71,2.71,0,0,0,176.426,168.29Z" transform="translate(-118.975 -135.121)" fill="url(#c)"/><path d="M183.827,136.8a12.927,12.927,0,0,1-9.632,6.743s-.321,15.089,6.742,15.089,8.348-13.162,8.348-13.162S183.613,140.979,183.827,136.8Z" transform="translate(-118.605 -131.489)" fill="#ff6d6d"/><path d="M149.843,199.064s4.527-5.588,12.9,0c0,0,6.782-6.91,14.561,0,0,0,8.219-6.91,15.862,0,0,0,6.471-3.236,10.07,0l-2.063,12.24H151.34Z" transform="translate(-114.57 -141.298)" fill="#16a3bd"/><path d="M214.554,187.787s-.221,2.756-.882,7.5-3.087,18.407-3.087,18.407" transform="translate(-124.636 -139.938)" fill="none" stroke="#0c3069" stroke-miterlimit="10" stroke-width="0.889"/><path d="M217.477,196.507s-1.507,6.614-5.218,10.141" transform="translate(-124.914 -141.383)" fill="none" stroke="#0c3069" stroke-miterlimit="10" stroke-width="0.889"/><path d="M151.331,210.083s-1.848-15.311-1.5-21.453" transform="translate(-114.561 -140.078)" fill="none" stroke="#0c3069" stroke-miterlimit="10" stroke-width="0.889"/></g><g transform="translate(242.889 127.979)"><path d="M309.479,422.429c0,2.776-4.136,5.026-9.238,5.026S291,425.2,291,422.429s4.136-5.026,9.239-5.026S309.479,419.653,309.479,422.429Z" transform="translate(-245.605 -225.451)" fill="#cedbed"/><path d="M297.12,402.252l-.237,8.547s-2.516,6.348-1.246,6.492,3.252.219,2.405,1.649-1.827,3.32,3.325,3.71,6.062-1.313,5.417-3.314c-.521-1.616-3.392-6.281-4.476-8.013a2.386,2.386,0,0,1-.356-1.442l.707-9.7Z" transform="translate(-246.314 -222.598)" fill="#ff6d6d"/><path d="M295.637,419.688c1.271.144,3.252.219,2.405,1.649s-1.827,3.32,3.325,3.71,6.062-1.313,5.417-3.314a54.588,54.588,0,0,0-3.9-7.091c-1.58.365-3.747,1.08-4.548,2.359-.7,1.119-1.669.131-2.42-1.039C295.378,417.693,294.945,419.609,295.637,419.688Z" transform="translate(-246.314 -224.994)" fill="#0c3069"/><path d="M293.03,326.373l1.323,64.941h13.227s2.645-3.654,2.351-11.884,2.94-9.7,3.234-16.755,3.38-38.8,3.38-38.8Z" transform="translate(-245.941 -209.952)" fill="#0f3d85"/><path d="M315.87,330.93s-2.7,5.291-6.82,5.878-4.7,5.438-8.671,9.994-2.345,8.816-6.684,12.2l-.665-32.626,23.516-2.5Z" transform="translate(-245.941 -209.952)" fill="url(#h)"/><path d="M322.071,319.365l9.945-.85a3.237,3.237,0,0,1,2.449.825,12.91,12.91,0,0,1,3.406,5.169c1.617,4.409,1.69,6.834,3.38,7.055s-.882-21.311-.882-21.311l-20.209-1.617Z" transform="translate(-250.437 -207.426)" fill="#ff6d6d"/><path d="M339.586,310.21l1.076,8.424-2.319,1.842a13.277,13.277,0,0,1,2.54,4.294c1.617,4.409,1.69,6.834,3.38,7.055s-.882-21.311-.882-21.311Z" transform="translate(-253.451 -207.687)" fill="#0c3069"/><path d="M293.9,219.117c-17.627,2.533-26.185,7.935-27.987,9.2h0c-.245.172-.369.269-.369.269l0,.009c-13.363,9.833-22.76,41.354-21.938,45.588,1.47,7.569,10.362,5.585,12.419,2.352,1.614-2.537,10.373-15.111,14.073-20.413,1.444,11.2,2.5,21.185,2.5,21.185h43.981L319,228.8C311.4,219.434,293.9,219.117,293.9,219.117Z" transform="translate(-237.742 -192.591)" fill="url(#i)"/><line x1="3.004" y1="20.728" transform="translate(29.351 42.799)" fill="none" stroke="#d92727" stroke-miterlimit="10" stroke-width="0.889"/><path d="M267.473,245.986s.022,7.393,6.1,11.234" transform="translate(-241.706 -197.044)" fill="none" stroke="#d92727" stroke-miterlimit="10" stroke-width="0.889"/><path d="M256.665,244.836l1.232-25.483a8.785,8.785,0,0,0,1.474-3.093c.416-1.763,3.579-3.265,3.137-4.391s-2.725,1.579-3.375,1.327-.516-.742-.739-4.119.044-6.619-.619-6.6-1.094,7.782-1.094,7.782-.607-9.134-1.718-8.967-.415,8.571-.415,8.571-1.679-7.513-2.507-7.5.442,7.967.442,7.967-2.9-5-3.412-4.745,2.633,6.032,2.633,6.032-.958,4.975,1.24,7.453L247.563,244.4Z" transform="translate(-238.406 -189.637)" fill="#ff6d6d"/><path d="M275.637,265.557h0v0Z" transform="translate(-243.059 -200.286)" fill="url(#j)"/><path d="M272,260.052,269.5,242.659s-4.23,3.15-4.072,10.505-5.574,6.261-5.9,10.775-4.372,7.822-4.372,7.822l2.257,9.333a4.125,4.125,0,0,0,.536-.662C259.558,277.9,268.285,265.372,272,260.052Z" transform="translate(-239.664 -196.492)" fill="url(#k)"/><path d="M298.976,280.673h26.785l1.935-38.7L317,239.448c-4.74,3.637-6.064,7.991-5.953,11.022s-4.961,5.731-5.567,10.031C305,263.894,300.748,275.8,298.976,280.673Z" transform="translate(-246.927 -195.96)" fill="url(#l)"/><path d="M307.133,278.754l-18.96,5.291s-7.55,0-8.487,3.142h29.045Z" transform="translate(-243.73 -202.474)" fill="#f04f4f"/><path d="M237.1,323.2c-2.732-10.29,5.306-19.766,30.346-19.766,30.38,0,42.4,1.764,42.4,1.764V321.37S241.055,338.124,237.1,323.2Z" transform="translate(-236.587 -206.565)" fill="#0f3d85"/><path d="M301.188,208.814,304,217.825a2.606,2.606,0,0,1-.753,2.725c-2.4,2.135-7.546,6.427-8.838,5.256-1.7-1.543-1.874-11.74-1.874-11.74Z" transform="translate(-245.859 -190.883)" fill="#ff6d6d"/><path d="M302.014,211.463l-.826-2.649-8.656,5.252a69.553,69.553,0,0,0,.61,7.868C297.735,219.95,300.706,214.417,302.014,211.463Z" transform="translate(-245.859 -190.883)" fill="url(#m)"/><path d="M285.765,203.572s1.014,9.508,3.169,10.523,9.762-4.362,11.346-7.537c0,0,4.109-2.538,2.054-5.9l-9.28-7.926-8.177,2.726Z" transform="translate(-244.59 -188.218)" fill="#ff6d6d"/><path d="M289.784,195.132s2.425-1.689,3.6.882,1.47,5.071,5.732,5a1.9,1.9,0,0,1,2.645-1.249,51.783,51.783,0,0,0,.882-6.026c.221-2.94-4.85-10.876-13.448-3.087,0,0-4.776-1.764-6.76,2.793s-.441,9.626-.441,9.626,2.2,1.543,6.393,0C288.388,203.068,285.008,193.662,289.784,195.132Z" transform="translate(-244.018 -187.321)" fill="#0c3069"/><path d="M257.014,249.705l-1.2,31.215H243.562s-4.075-1.515-3.523-11.546,4.74-20.281,4.74-20.281Z" transform="translate(-237.151 -197.558)" fill="url(#i)"/><path d="M329.883,230.486c3.969,4.986,10.789,22.907,12.641,40.037a7.55,7.55,0,0,1-7.51,8.354H310.483s-1.984-5.953-.992-10.031l10.251-1.984s-.771-2.425,1.433-2.646c0,0-1.1-5.414-3.858-15.383S325.584,225.085,329.883,230.486Z" transform="translate(-248.623 -194.273)" fill="url(#o)"/><path d="M321.854,235.965s-5.183,5.062-2.4,16.09" transform="translate(-250.184 -195.383)" fill="none" stroke="#d92727" stroke-miterlimit="10" stroke-width="0.889"/></g><g transform="translate(316.958 180.126)"><path d="M370.931,281.042H325.37l5.622-31.215h45.561Z" transform="translate(-325.37 -249.827)" fill="url(#p)"/><ellipse cx="6.151" cy="5.138" rx="6.151" ry="5.138" transform="matrix(0.738, -0.675, 0.675, 0.738, 17.585, 15.965)" fill="#0c3069"/></g><path d="M434.738,273.07s2.219-2.48,6.26-.244" transform="translate(-26.537 -73.357)" fill="none" stroke="#0c3069" stroke-miterlimit="10" stroke-width="0.72"/><g transform="translate(400.613 90.564)"><path d="M460.59,420.181c.151,1.723-4.025,3.5-9.326,3.959s-9.722-.556-9.873-2.279,4.025-3.5,9.326-3.959S460.439,418.457,460.59,420.181Z" transform="translate(-428.252 -188.101)" fill="#cedbed"/><path d="M512.525,420.181c.151,1.723-4.025,3.5-9.326,3.959s-9.721-.556-9.872-2.279,4.025-3.5,9.326-3.959S512.374,418.457,512.525,420.181Z" transform="translate(-436.859 -188.101)" fill="#cedbed"/><path d="M457.654,378.065l-3.29,29.17-5.874,4.084s-6.046.889-6.023,2.1,12.784-.249,15.87-.31.508-2.217.792-4.647,7.342-30.57,7.342-30.57Z" transform="translate(-428.431 -181.489)" fill="#ff6d6d"/><path d="M502,378.065l4.3,29.17-5.873,4.084s-6.047.889-6.023,2.1,12.784-.249,15.87-.31.508-2.217.791-4.647-.251-30.57-.251-30.57Z" transform="translate(-437.038 -181.489)" fill="#ff6d6d"/><path d="M499.673,244.248s6.393,9.434,6.136,35.433l1.359,78.457H492.454l-11.148-74.565-6.617,40.656s3.205,9.648-3.982,33.909H457.64l2.43-39.818a290.03,290.03,0,0,1,7.564-74.073Z" transform="translate(-430.945 -159.341)" fill="#456b4b"/><path d="M485.416,283.369s-3.824-21.983-2.8-40.354" transform="translate(-435.056 -159.136)" fill="none" stroke="#38573d" stroke-miterlimit="10" stroke-width="0.72"/><path d="M477.97,243.015s-1.048,19.143,4.216,19.382" transform="translate(-434.3 -159.136)" fill="none" stroke="#38573d" stroke-miterlimit="10" stroke-width="0.72"/><path d="M501.332,244.248h-32.04q-.888,3.719-1.645,7.374a20.269,20.269,0,0,0,8.7.3c7-1.09,21.486,9.13,29.967,9.021C504.529,248.978,501.332,244.248,501.332,244.248Z" transform="translate(-432.604 -159.341)" opacity="0.5" fill="url(#q)"/><path d="M460.756,186.368l-19.312,13.76-7.951-10.04s.514-3.144,0-4.391-2.058-.6-2.058-.6-1.471-4.816-1.872-4.786.216,3.9.216,3.9l-2.377,1.658c-.142.089-1.723-3.348-1.985-3.085-.464.431.827,4.066,1.034,4.9.466,1.885,1.568,4.655,4.03,4.8,0,0,2.5,16.259,9.259,18.344s28.145-16.359,28.145-16.359Z" transform="translate(-425.317 -148.151)" fill="#ff6d6d"/><path d="M465.552,188.283,452.614,197.5c4.31.107,11.43.894,12.646,4.843,4.265-3.231,7.42-5.95,7.42-5.95Z" transform="translate(-430.112 -150.066)" fill="url(#c)"/><path d="M477.57,178.591,467.5,185.77a1.382,1.382,0,0,0-.218,2.059l7.916,8.649Z" transform="translate(-432.483 -148.46)" fill="#1656bd"/><path d="M479.874,171.827c-4.041,2.278-11.169,13.595-11.169,13.595a22.583,22.583,0,0,1,1.764-10.582s-5-.073-5.585-1.249C462.957,169.739,469,161.1,469,161.1c-8.157-1.911-11.1-6.834-5.731-10.068s11.464-6.1,11.464-6.1,3.206-5,9.551-.734c4.044,2.719,3.594,7.789,4.995,9.626s5.442,4.262,3.972,5.291c0,0,6.614,2.278,8.01,8.378,0,0-6.687-1.244-10.434,1.1Z" transform="translate(-431.428 -142.474)" fill="#ffa526"/><path d="M491.741,173.193c4.261-3.53,10.729-4.045,13.668-.884s3.16,13.889,3.16,13.889h-4.115s-4.851,15.358-5,21.971,5.438,24.544,5.438,24.544c.772,2.645-2.646,2.866-8.267,2.866H469.512c-5.512,0-2.977-4.629-1.874-9.369s4.923-19.29,5-22.377-5.548-7.789-3.013-13.815,6.908-14.109,11.169-13.595Z" transform="translate(-432.345 -147.072)" fill="#1656bd"/><path d="M497.212,183.823l-.992,5.953a5.879,5.879,0,0,0,4.134,1.488" transform="translate(-437.339 -149.327)" fill="none" stroke="#0c3069" stroke-miterlimit="10" stroke-width="0.72"/><path d="M492.385,186.664s-.608,6.448,6.558,7.936" transform="translate(-436.701 -149.798)" fill="none" stroke="#0c3069" stroke-miterlimit="10" stroke-width="0.72"/><path d="M502.757,210.9a37.567,37.567,0,0,1,.792-5.96l-6.809-13.493-2.213-1.2.6-3.582c-3.371,1.267-1.754,5.623-1.149,8.433s-.44,4.188-4.629,3.968-4.078.22-1.654,4.189,3.909,9.231,2.937,17.085a119.414,119.414,0,0,1-4.538,17.967h13.837c5.621,0,9.039-.22,8.267-2.866C508.2,235.44,502.611,217.51,502.757,210.9Z" transform="translate(-435.646 -149.798)" opacity="0.57" fill="url(#s)"/><path d="M444.974,204.776a3.732,3.732,0,0,1,1.748,2.771" transform="translate(-428.846 -152.799)" fill="none" stroke="#d92727" stroke-miterlimit="10" stroke-width="0.528"/><path d="M436.949,195.877c-1.4-.035-3.592-.108-5.117-.251a55.271,55.271,0,0,0,1.245,5.609c2.668-1.19,6.617-.043,8.7.732Z" transform="translate(-426.668 -151.283)" fill="url(#c)"/><path d="M459.557,332.69l-1.917,31.417h13.066c7.187-24.262,3.982-33.909,3.982-33.909l6.617-40.656-1.325-9.279C477.047,292.02,466.168,317.622,459.557,332.69Z" transform="translate(-430.945 -165.309)" opacity="0.5" fill="url(#u)"/><path d="M442.468,419.248c.023,1.213,12.784-.249,15.87-.31,2.571-.05,1.214-1.558.853-3.465-5.353,2.746-2.982-2.38-4.825-2.411l-5.874,4.084S442.445,418.036,442.468,419.248Z" transform="translate(-428.431 -187.317)" fill="#0c3069"/><path d="M494.4,419.248c.023,1.213,12.784-.249,15.87-.31,2.571-.05,1.214-1.558.853-3.465-5.353,2.746-2.982-2.38-4.826-2.411l-5.873,4.084S494.38,418.036,494.4,419.248Z" transform="translate(-437.038 -187.317)" fill="#0c3069"/><path d="M473.935,160.639s.588,1.029,1.837,3.822,2.719,4.041,5.732,3.748l.587,5.071s-5.8,4.714-2.646,6.179,7.716-5.144,13.6-9.41c0,0-4.674-2.19-6.026-6.249-2.352-7.055-5.953-5.144-7.716-12.566C479.3,151.233,477.169,158.581,473.935,160.639Z" transform="translate(-433.646 -143.926)" fill="#ff6d6d"/><path d="M488.519,166.131c-.1-.292-.2-.563-.3-.826-1.109,2.4-3.477,5-5.213,5.235l.239,2.06L493,171.474A11.143,11.143,0,0,1,488.519,166.131Z" transform="translate(-435.149 -146.258)" fill="url(#c)"/><path d="M510.363,189.113a14.029,14.029,0,0,0-13.558.992L486,268.145s-1.543,1.818-.551,2.618,3.307.469,5.953.469h7.275s-4.74-3.194-5.953-3.8a4.173,4.173,0,0,1-1.654-2.481s10.141-24.471,9.149-38.029A260.988,260.988,0,0,0,510.363,189.113Z" transform="translate(-435.499 -149.986)" fill="#ff6d6d"/></g><g transform="translate(242.861 210.906)"><ellipse cx="5.842" cy="1.984" rx="5.842" ry="1.984" transform="translate(244.535 117.526)" fill="#cedbed"/><ellipse cx="5.842" cy="1.984" rx="5.842" ry="1.984" transform="translate(0 117.526)" fill="#cedbed"/><rect width="224.807" height="18.518" transform="translate(15.518 6.306)" fill="#967c45"/><g transform="translate(3.927 6.306)"><path d="M247.472,294.279,241.261,407.05H245.4l15.4-112.771Z" transform="translate(-241.261 -294.279)" fill="#786337"/><path d="M528.419,294.279,534.63,407.05H530.49l-15.4-112.771Z" transform="translate(-286.641 -294.279)" fill="#786337"/></g><path d="M248.42,298.612l236.643,10.873-.837-15.206H248.658Z" transform="translate(-238.52 -287.973)" opacity="0.4" fill="url(#w)"/><rect width="255.787" height="8.07" transform="translate(0.028)" fill="#967c45"/></g><path d="M246.186,106.352H167.854c-15.872,0-8.818-13.227,0-15.578s6.76-16.46,22.632-22.045c8.812-3.1,17.929,5.879,17.929,5.879s9.994-3.234,18.811,3.233c5.926,4.346,10.4,13.931,18.959,14.108C260.294,92.244,266.319,106.352,246.186,106.352Z" transform="translate(31.087 -128.405)" fill="none" stroke="#000" stroke-width="1"/><path d="M336.069,105.535s-4.382-6.3-11.449,0c0,0,8.892-.193,11.449,6.042,2.639-6.656,11.448-6.042,11.448-6.042C340.451,99.234,336.069,105.535,336.069,105.535Z" transform="translate(18.972 -79.896)" fill="none" stroke="#000" stroke-width="1"/><path d="M336.069,105.535s-4.382-6.3-11.449,0c0,0,10.017-1.506,11.449,6.042,1.431-7.548,11.448-6.042,11.448-6.042C340.451,99.234,336.069,105.535,336.069,105.535Z" transform="translate(16.972 -77.896)" fill="#a1c1ed"/></g></svg>