<svg xmlns="http://www.w3.org/2000/svg" width="16.592" height="16.592" viewBox="0 0 16.592 16.592"><path d="M11.649,0H4.943A4.948,4.948,0,0,0,0,4.943v6.706a4.948,4.948,0,0,0,4.943,4.943h6.706a4.948,4.948,0,0,0,4.943-4.943V4.943A4.948,4.948,0,0,0,11.649,0Zm3.274,11.649a3.274,3.274,0,0,1-3.274,3.274H4.943a3.274,3.274,0,0,1-3.274-3.274V4.943A3.274,3.274,0,0,1,4.943,1.669h6.706a3.274,3.274,0,0,1,3.274,3.274Z" transform="translate(0)" fill="#939393"/><path d="M137.294,133a4.291,4.291,0,1,0,4.293,4.292A4.291,4.291,0,0,0,137.294,133Zm0,6.914a2.622,2.622,0,1,1,2.622-2.622,2.622,2.622,0,0,1-2.622,2.622Z" transform="translate(-128.998 -128.995)" fill="#939393"/><circle cx="1.028" cy="1.028" r="1.028" transform="translate(11.568 3.009)" fill="#939393"/></svg>