<svg xmlns="http://www.w3.org/2000/svg" width="95.997" height="97.555" viewBox="0 0 95.997 97.555"><g transform="translate(-837 -1529)"><g transform="translate(675)"><rect width="81" height="81" rx="40.5" transform="translate(162 1529)" fill="#d8dcff"/></g><g transform="translate(3 7)"><g transform="translate(623.518 -1880.38) rotate(40)"><path d="M2433.729,2477.25l-6.1-.759a1.3,1.3,0,0,1-.868-.358,1.253,1.253,0,0,1-.377-.887l1.1-9.581a1.227,1.227,0,0,0-1.469-1.163l-1.884,1.229a2.15,2.15,0,0,1-2.632-2.073l-.049-2.448a2.146,2.146,0,0,1,2.656-2.107l.066.03,1.724,1.2a1.226,1.226,0,0,0,1.48-1.212l-1.27-8.723a1.254,1.254,0,0,1,1.244-1.3c.061,0,7.22-.493,9.6-.524,2.464-.009,9.8.364,9.871.368h0a1.257,1.257,0,0,1,1.248,1.258l-1.193,8.789a1.229,1.229,0,0,0,1.494,1.17l1.786-1.247a2.147,2.147,0,0,1,2.677,2.079v2.449a2.15,2.15,0,0,1-2.611,2.1l-.066-.027-1.823-1.183a1.223,1.223,0,0,0-1.456,1.2l1.189,9.52a1.263,1.263,0,0,1-1.257,1.283l-5.8.839a1.457,1.457,0,0,1-1.112-.483,1.425,1.425,0,0,1-.344-1.138l.009-.039,1.106-3.145a1.706,1.706,0,0,0-1.693-1.914h-.006l-3.462.013a1.7,1.7,0,0,0-1.662,2.061l1.25,2.953a1.428,1.428,0,0,1-1.378,1.765Zm-6.073-1.155,6.1.759a1.038,1.038,0,0,0,.977-1.251l-1.251-2.953a2.1,2.1,0,0,1,2.038-2.576l3.462-.013h.008a2.1,2.1,0,0,1,2.083,2.383l-.009.04-1.106,3.144a1.035,1.035,0,0,0,1.027,1.153h.008l5.8-.839a.872.872,0,0,0,.89-.864l-1.189-9.52a1.619,1.619,0,0,1,1.971-1.608l.065.027,1.823,1.183a1.753,1.753,0,0,0,2.095-1.719v-2.449a1.75,1.75,0,0,0-2.147-1.7l-1.785,1.247a1.623,1.623,0,0,1-2.022-1.574l1.193-8.789a.861.861,0,0,0-.863-.835c-.083,0-7.285-.367-9.785-.367h-.072c-2.365.031-9.514.519-9.586.524a.859.859,0,0,0-.864.871l1.27,8.723a1.624,1.624,0,0,1-.615,1.317,1.606,1.606,0,0,1-1.39.3l-.066-.03-1.724-1.2a1.75,1.75,0,0,0-2.13,1.724l.049,2.448a1.752,1.752,0,0,0,2.112,1.7l1.884-1.229a1.621,1.621,0,0,1,1.989,1.564l-1.1,9.581a.85.85,0,0,0,.258.582A.886.886,0,0,0,2427.655,2476.095Z" fill="none" stroke="#0013a5" stroke-width="2"/></g><g transform="translate(-2580.513 1532.67) rotate(-45)"><path d="M2433.729,2477.25l-6.1-.759a1.3,1.3,0,0,1-.868-.358,1.253,1.253,0,0,1-.377-.887l1.1-9.581a1.227,1.227,0,0,0-1.469-1.163l-1.884,1.229a2.15,2.15,0,0,1-2.632-2.073l-.049-2.448a2.146,2.146,0,0,1,2.656-2.107l.066.03,1.724,1.2a1.226,1.226,0,0,0,1.48-1.212l-1.27-8.723a1.254,1.254,0,0,1,1.244-1.3c.061,0,7.22-.493,9.6-.524,2.464-.009,9.8.364,9.871.368h0a1.257,1.257,0,0,1,1.248,1.258l-1.193,8.789a1.229,1.229,0,0,0,1.494,1.17l1.786-1.247a2.147,2.147,0,0,1,2.677,2.079v2.449a2.15,2.15,0,0,1-2.611,2.1l-.066-.027-1.823-1.183a1.223,1.223,0,0,0-1.456,1.2l1.189,9.52a1.263,1.263,0,0,1-1.257,1.283l-5.8.839a1.457,1.457,0,0,1-1.112-.483,1.425,1.425,0,0,1-.344-1.138l.009-.039,1.106-3.145a1.706,1.706,0,0,0-1.693-1.914h-.006l-3.462.013a1.7,1.7,0,0,0-1.662,2.061l1.25,2.953a1.428,1.428,0,0,1-1.378,1.765Zm-6.073-1.155,6.1.759a1.038,1.038,0,0,0,.977-1.251l-1.251-2.953a2.1,2.1,0,0,1,2.038-2.576l3.462-.013h.008a2.1,2.1,0,0,1,2.083,2.383l-.009.04-1.106,3.144a1.035,1.035,0,0,0,1.027,1.153h.008l5.8-.839a.872.872,0,0,0,.89-.864l-1.189-9.52a1.619,1.619,0,0,1,1.971-1.608l.065.027,1.823,1.183a1.753,1.753,0,0,0,2.095-1.719v-2.449a1.75,1.75,0,0,0-2.147-1.7l-1.785,1.247a1.623,1.623,0,0,1-2.022-1.574l1.193-8.789a.861.861,0,0,0-.863-.835c-.083,0-7.285-.367-9.785-.367h-.072c-2.365.031-9.514.519-9.586.524a.859.859,0,0,0-.864.871l1.27,8.723a1.624,1.624,0,0,1-.615,1.317,1.606,1.606,0,0,1-1.39.3l-.066-.03-1.724-1.2a1.75,1.75,0,0,0-2.13,1.724l.049,2.448a1.752,1.752,0,0,0,2.112,1.7l1.884-1.229a1.621,1.621,0,0,1,1.989,1.564l-1.1,9.581a.85.85,0,0,0,.258.582A.886.886,0,0,0,2427.655,2476.095Z" fill="none" stroke="#0013a5" stroke-width="2"/></g><g transform="matrix(-0.755, -0.656, 0.656, -0.755, 1085.875, 5031.584)"><path d="M2433.729,2477.25l-6.1-.759a1.3,1.3,0,0,1-.868-.358,1.253,1.253,0,0,1-.377-.887l1.1-9.581a1.227,1.227,0,0,0-1.469-1.163l-1.884,1.229a2.15,2.15,0,0,1-2.632-2.073l-.049-2.448a2.146,2.146,0,0,1,2.656-2.107l.066.03,1.724,1.2a1.226,1.226,0,0,0,1.48-1.212l-1.27-8.723a1.254,1.254,0,0,1,1.244-1.3c.061,0,7.22-.493,9.6-.524,2.464-.009,9.8.364,9.871.368h0a1.257,1.257,0,0,1,1.248,1.258l-1.193,8.789a1.229,1.229,0,0,0,1.494,1.17l1.786-1.247a2.147,2.147,0,0,1,2.677,2.079v2.449a2.15,2.15,0,0,1-2.611,2.1l-.066-.027-1.823-1.183a1.223,1.223,0,0,0-1.456,1.2l1.189,9.52a1.263,1.263,0,0,1-1.257,1.283l-5.8.839a1.457,1.457,0,0,1-1.112-.483,1.425,1.425,0,0,1-.344-1.138l.009-.039,1.106-3.145a1.706,1.706,0,0,0-1.693-1.914h-.006l-3.462.013a1.7,1.7,0,0,0-1.662,2.061l1.25,2.953a1.428,1.428,0,0,1-1.378,1.765Zm-6.073-1.155,6.1.759a1.038,1.038,0,0,0,.977-1.251l-1.251-2.953a2.1,2.1,0,0,1,2.038-2.576l3.462-.013h.008a2.1,2.1,0,0,1,2.083,2.383l-.009.04-1.106,3.144a1.035,1.035,0,0,0,1.027,1.153h.008l5.8-.839a.872.872,0,0,0,.89-.864l-1.189-9.52a1.619,1.619,0,0,1,1.971-1.608l.065.027,1.823,1.183a1.753,1.753,0,0,0,2.095-1.719v-2.449a1.75,1.75,0,0,0-2.147-1.7l-1.785,1.247a1.623,1.623,0,0,1-2.022-1.574l1.193-8.789a.861.861,0,0,0-.863-.835c-.083,0-7.285-.367-9.785-.367h-.072c-2.365.031-9.514.519-9.586.524a.859.859,0,0,0-.864.871l1.27,8.723a1.624,1.624,0,0,1-.615,1.317,1.606,1.606,0,0,1-1.39.3l-.066-.03-1.724-1.2a1.75,1.75,0,0,0-2.13,1.724l.049,2.448a1.752,1.752,0,0,0,2.112,1.7l1.884-1.229a1.621,1.621,0,0,1,1.989,1.564l-1.1,9.581a.85.85,0,0,0,.258.582A.886.886,0,0,0,2427.655,2476.095Z" fill="none" stroke="#0013a5" stroke-width="2"/></g><g transform="translate(4349.743 1494.173) rotate(133)"><path d="M2433.729,2477.25l-6.1-.759a1.3,1.3,0,0,1-.868-.358,1.253,1.253,0,0,1-.377-.887l1.1-9.581a1.227,1.227,0,0,0-1.469-1.163l-1.884,1.229a2.15,2.15,0,0,1-2.632-2.073l-.049-2.448a2.146,2.146,0,0,1,2.656-2.107l.066.03,1.724,1.2a1.226,1.226,0,0,0,1.48-1.212l-1.27-8.723a1.254,1.254,0,0,1,1.244-1.3c.061,0,7.22-.493,9.6-.524,2.464-.009,9.8.364,9.871.368h0a1.257,1.257,0,0,1,1.248,1.258l-1.193,8.789a1.229,1.229,0,0,0,1.494,1.17l1.786-1.247a2.147,2.147,0,0,1,2.677,2.079v2.449a2.15,2.15,0,0,1-2.611,2.1l-.066-.027-1.823-1.183a1.223,1.223,0,0,0-1.456,1.2l1.189,9.52a1.263,1.263,0,0,1-1.257,1.283l-5.8.839a1.457,1.457,0,0,1-1.112-.483,1.425,1.425,0,0,1-.344-1.138l.009-.039,1.106-3.145a1.706,1.706,0,0,0-1.693-1.914h-.006l-3.462.013a1.7,1.7,0,0,0-1.662,2.061l1.25,2.953a1.428,1.428,0,0,1-1.378,1.765Zm-6.073-1.155,6.1.759a1.038,1.038,0,0,0,.977-1.251l-1.251-2.953a2.1,2.1,0,0,1,2.038-2.576l3.462-.013h.008a2.1,2.1,0,0,1,2.083,2.383l-.009.04-1.106,3.144a1.035,1.035,0,0,0,1.027,1.153h.008l5.8-.839a.872.872,0,0,0,.89-.864l-1.189-9.52a1.619,1.619,0,0,1,1.971-1.608l.065.027,1.823,1.183a1.753,1.753,0,0,0,2.095-1.719v-2.449a1.75,1.75,0,0,0-2.147-1.7l-1.785,1.247a1.623,1.623,0,0,1-2.022-1.574l1.193-8.789a.861.861,0,0,0-.863-.835c-.083,0-7.285-.367-9.785-.367h-.072c-2.365.031-9.514.519-9.586.524a.859.859,0,0,0-.864.871l1.27,8.723a1.624,1.624,0,0,1-.615,1.317,1.606,1.606,0,0,1-1.39.3l-.066-.03-1.724-1.2a1.75,1.75,0,0,0-2.13,1.724l.049,2.448a1.752,1.752,0,0,0,2.112,1.7l1.884-1.229a1.621,1.621,0,0,1,1.989,1.564l-1.1,9.581a.85.85,0,0,0,.258.582A.886.886,0,0,0,2427.655,2476.095Z" fill="none" stroke="#0013a5" stroke-width="2"/></g></g></g></svg>