<svg xmlns="http://www.w3.org/2000/svg" xmlns:xlink="http://www.w3.org/1999/xlink" width="956.459" height="300" viewBox="0 0 956.459 300"><defs><linearGradient id="a" x1="0.244" y1="-0.049" x2="1.151" y2="1.309" gradientUnits="objectBoundingBox"><stop offset="0" stop-color="#6700ca"/><stop offset="1" stop-color="#5700aa"/></linearGradient></defs><g transform="translate(-162 -5079)"><rect width="956" height="300" rx="20" transform="translate(162 5079)" fill="#6700ca"/><path d="M20,300A20,20,0,0,1,0,280V20A20,20,0,0,1,20,0H564.368a189.976,189.976,0,0,1,25.656,47.109C632.742,162.35,538.212,240.7,417.109,226.363,323.94,215.332,297.174,254.745,304.79,300Z" transform="translate(1118.459 5379) rotate(180)" fill="url(#a)"/><g transform="translate(-264 1736)"><path d="M942.349,3423.959c90.155,140.332,146.933,199.317,220.434,195.341s151.567-31.179,171.288-131.193-136.059-175.8-214.995-111.218-64.644,124.528-22.093,150.743,71.964,35.355,114.78,10.869,38.77-107.77,38.77-107.77" fill="none" stroke="#fff" stroke-linecap="round" stroke-linejoin="round" stroke-width="1" opacity="0.234"/><path d="M1251.7,3433.051l-1.374-7.743-7.777,1.8" transform="matrix(0.839, -0.545, 0.545, 0.839, -1663.686, 1238.624)" fill="none" stroke="#fff" stroke-linecap="round" stroke-linejoin="round" stroke-width="1" opacity="0.234"/></g><g transform="translate(877.367 5147.057) rotate(34)"><path d="M898.161,458.458H850.41a167.011,167.011,0,0,1,0-56.934h47.751a102.443,102.443,0,0,0,0,56.934Z" transform="translate(-847.966 -401.524)" fill="#ff6584"/><path d="M887.565,416.945H858.508c-.5,0-.908-.653-.908-1.46s.407-1.46.908-1.46h29.057c.5,0,.908.653.908,1.46S888.067,416.945,887.565,416.945Z" transform="translate(-847.966 -401.524)" fill="#fff"/><path d="M887.565,430.494H858.508c-.5,0-.908-.653-.908-1.46s.407-1.46.908-1.46h29.057c.5,0,.908.653.908,1.46S888.067,430.494,887.565,430.494Z" transform="translate(-847.966 -401.524)" fill="#fff"/></g><g transform="matrix(0.788, -0.616, 0.616, 0.788, 721.183, 5281.153)"><path d="M392.858,449.9h47.751a167.01,167.01,0,0,0,0-56.934H392.858a102.443,102.443,0,0,1,0,56.934Z" transform="translate(-392.858 -392.967)" fill="#6c63ff"/><path d="M433.074,409.555H404.017c-.5,0-.908-.653-.908-1.46s.407-1.46.908-1.46h29.057c.5,0,.908.653.908,1.46S433.576,409.555,433.074,409.555Z" transform="translate(-392.858 -392.967)" fill="#fff"/><path d="M433.074,423.1H404.017c-.5,0-.908-.653-.908-1.46s.407-1.46.908-1.46h29.057c.5,0,.908.653.908,1.46S433.576,423.1,433.074,423.1Z" transform="translate(-392.858 -392.967)" fill="#fff"/><path d="M433.074,436.652H404.017c-.5,0-.908-.653-.908-1.46s.407-1.46.908-1.46h29.057c.5,0,.908.653.908,1.46S433.576,436.652,433.074,436.652Z" transform="translate(-392.858 -392.967)" fill="#fff"/></g><g transform="translate(-234 1746)"><rect width="37.5" height="11" rx="2" transform="translate(1240.404 3415.522) rotate(30)" fill="#fff"/><rect width="37.5" height="11" rx="2" transform="translate(1233.404 3427.646) rotate(30)" fill="#fff"/><rect width="37.5" height="11" rx="2" transform="translate(1226.404 3439.771) rotate(30)" fill="#fff"/><rect width="37.5" height="30" rx="2" transform="translate(1219.404 3451.895) rotate(30)" fill="#fff"/><path d="M4,0H9.525l2.053,3.786,19.391-.124L34.762,0H39a4.135,4.135,0,0,1,4,4.259c0,10.869-.187,10.589-.187,10.589l-43.074-.4S0,15.128,0,4.259A4.135,4.135,0,0,1,4,0Z" transform="translate(1246.654 3399.641) rotate(30)" fill="#c991ff" opacity="0.928"/><path d="M888.423,382H856.985a7.852,7.852,0,0,1-7.844-7.843v-80.9a7.851,7.851,0,0,1,7.844-7.841H860.8a1.46,1.46,0,0,1,1.355,2.007,1.575,1.575,0,0,0,1.453,2.171H881.53a1.574,1.574,0,0,0,1.456-2.166,1.46,1.46,0,0,1,1.352-2.011h4.085a7.851,7.851,0,0,1,7.843,7.841v80.9A7.852,7.852,0,0,1,888.423,382ZM856.985,288.34a4.928,4.928,0,0,0-4.923,4.92v80.9a4.928,4.928,0,0,0,4.923,4.922h31.438a4.927,4.927,0,0,0,4.922-4.922v-80.9a4.927,4.927,0,0,0-4.922-4.92h-2.412a4.5,4.5,0,0,1-4.481,4.177H863.607a4.5,4.5,0,0,1-4.48-4.177Z" transform="translate(652.968 2725.057) rotate(30)" fill="#fff"/></g><g transform="translate(-3864.088 4792.37) rotate(-65)"><path d="M14.7,0H37.434a4.289,4.289,0,0,1,4.289,4.289V53.422a4.289,4.289,0,0,1-4.289,4.289H4.289A4.289,4.289,0,0,1,0,53.422L.007,18.4Z" transform="translate(1527 4537)" fill="#e0ccf4"/><path d="M14.7,18.4V0H37.434a4.289,4.289,0,0,1,4.289,4.289V53.422a4.289,4.289,0,0,1-4.289,4.289H4.289A4.289,4.289,0,0,1,0,53.422V18.4Z" transform="translate(1527 4537)" fill="#fff"/><text transform="translate(1547.724 4569.711)" fill="#6700ca" font-size="11" font-family="Nunito-ExtraBold, Nunito" font-weight="800"><tspan x="-8.811" y="0">pdf</tspan></text></g><g transform="translate(-264 1736)"><rect width="46" height="46" rx="23" transform="translate(1008 3394)" fill="#fff"/><path d="M8.693,1.1a1,1,0,0,1,1.615,0L17.838,11.41A1,1,0,0,1,17.031,13H1.969a1,1,0,0,1-.807-1.59Z" transform="translate(1034.968 3405.257) rotate(68)" fill="#6700ca"/></g></g></svg>