<svg xmlns="http://www.w3.org/2000/svg" xmlns:xlink="http://www.w3.org/1999/xlink" width="21" height="19" viewBox="0 0 21 19"><defs><clipPath id="a"><rect width="21" height="19" transform="translate(-0.139)" fill="#939393"/></clipPath></defs><g transform="translate(0.139)" clip-path="url(#a)"><g transform="translate(0.458 1.278)"><path d="M19.508,3.936a7.85,7.85,0,0,1-1.367.461,4.262,4.262,0,0,0,1.125-1.792h0a.223.223,0,0,0-.327-.26h0a7.887,7.887,0,0,1-2.09.863.533.533,0,0,1-.131.016.554.554,0,0,1-.366-.14,4.274,4.274,0,0,0-2.828-1.067,4.569,4.569,0,0,0-1.354.209,4.141,4.141,0,0,0-2.79,2.983,4.559,4.559,0,0,0-.1,1.574.153.153,0,0,1-.039.12.158.158,0,0,1-.118.053H9.108a11.206,11.206,0,0,1-7.7-4.115h0a.223.223,0,0,0-.366.029h0a4.279,4.279,0,0,0,.7,5.2A3.83,3.83,0,0,1,.76,7.688h0a.223.223,0,0,0-.332.193h0a4.279,4.279,0,0,0,2.5,3.942H2.833a3.846,3.846,0,0,1-.72-.069h0a.223.223,0,0,0-.255.288h0a4.283,4.283,0,0,0,3.383,2.913A7.886,7.886,0,0,1,.825,16.3H.33a.327.327,0,0,0-.32.247.339.339,0,0,0,.162.374,11.73,11.73,0,0,0,5.894,1.589A11.891,11.891,0,0,0,11.1,17.439a11.123,11.123,0,0,0,3.686-2.762,12.108,12.108,0,0,0,2.257-3.78,11.94,11.94,0,0,0,.767-4.137V6.7a.727.727,0,0,1,.272-.566,8.447,8.447,0,0,0,1.7-1.865h0a.223.223,0,0,0-.276-.328Z" transform="translate(0 -2.018)" fill="#939393"/></g></g></svg>